PathFileType	4	(X/Y/Z)	Walk3.trc
DataRate	CameraRate	NumFrames	NumMarkers	Units	OrigDataRate	OrigDataStartFrame	OrigNumFrames
200.000000	200.000000	4	60	mm	200.000000	319	567
Frame#	Times		LFHD		RFHD		CLAV		STRN		LASI		RASI		RACR1		RUA1		RElbow		RFA1		RWRR		RWRU		RCAR		LACR1		LUA1		LElbow		LFA1		LWRR		LWRU		LCAR		RTH3		RTH4		RMFC		RTB1		RTB2		RTB4		LTH1		LTH3		LLFC		LMFC		LTB1		LTB2		LTB4		LMT1		RTB3		LTB3		RMMAL		RMT1		RTH2		LTH4		LTH2		RToe		RElbowM		RLFC		RBHD		LToe		RTH1		RCAL		C7		RBack		RLMAL		RPSI		LMT5		T10		LLMAL		LPSI		LMMAL		LBHD		LCAL		LElbowM
			X1	Y1	Z1	X2	Y2	Z2	X3	Y3	Z3	X4	Y4	Z4	X5	Y5	Z5	X6	Y6	Z6	X7	Y7	Z7	X8	Y8	Z8	X9	Y9	Z9	X10	Y10	Z10	X11	Y11	Z11	X12	Y12	Z12	X13	Y13	Z13	X14	Y14	Z14	X15	Y15	Z15	X16	Y16	Z16	X17	Y17	Z17	X18	Y18	Z18	X19	Y19	Z19	X20	Y20	Z20	X21	Y21	Z21	X22	Y22	Z22	X23	Y23	Z23	X24	Y24	Z24	X25	Y25	Z25	X26	Y26	Z26	X27	Y27	Z27	X28	Y28	Z28	X29	Y29	Z29	X30	Y30	Z30	X31	Y31	Z31	X32	Y32	Z32	X33	Y33	Z33	X34	Y34	Z34	X35	Y35	Z35	X36	Y36	Z36	X37	Y37	Z37	X38	Y38	Z38	X39	Y39	Z39	X40	Y40	Z40	X41	Y41	Z41	X42	Y42	Z42	X43	Y43	Z43	X44	Y44	Z44	X45	Y45	Z45	X46	Y46	Z46	X47	Y47	Z47	X48	Y48	Z48	X49	Y49	Z49	X50	Y50	Z50	X51	Y51	Z51	X52	Y52	Z52	X53	Y53	Z53	X54	Y54	Z54	X55	Y55	Z55	X56	Y56	Z56	X57	Y57	Z57	X58	Y58	Z58	X59	Y59	Z59	X60	Y60	Z60

319	1.595	-64.94	1680.9	17.106	-67.473	1670	-81.927	-53.369	1414	-3.6141	14.591	1254.1	0.25378	-112.94	995.49	-171.41	-86.596	999.26	183.44	-168.92	1502.6	164.7	-211.46	1340.6	285.83	-218.06	1191.2	337.24	-205.24	1037.3	354.3	-200.36	915.68	287.55	-205.86	923.31	368.4	-186.55	833.75	337.9	-171.43	1468	-187.34	-167.96	1290.9	-272.5	-125.1	1132.1	-321.06	-48.509	1015.6	-320.84	41.748	930.29	-248	15.185	893.08	-306.71	95.465	860.27	-273.57	-50.609	647.15	232.42	-91.203	722.96	240.11	-14.645	531.77	75.185	53.762	426.98	173.11	26.318	340.01	225.38	55.003	340.69	171.2	-202.13	761.66	-186.68	-212.47	593.09	-156.22	-240.55	509.79	-150.7	-224.46	502.19	6.0003	-193.53	377.75	-84.943	-243.57	293.39	-120.98	-214.28	298.01	-66.023	-208.24	36.176	-40.862	56.995	254.91	168.55	-243.28	216.56	-50.149	41.289	113.71	114.41	167.93	82.867	167.87	-40.816	751.88	227.76	-208.29	678.43	-171.48	-150.26	677.8	-155.76	196.95	102.32	208.44	-279.59	1126.2	243	-30.249	538.97	229.41	-213.35	1583.9	-81.145	-153.87	24.652	-81.479	-133.16	799.08	244.21	-48.358	59.662	137.88	-246.63	1491.8	-7.8973	-313.46	1381.7	107.6	-4.535	99.942	192.93	-355.45	1040.8	52.384	-275.39	25.822	-118.45	-308.83	1179	8.5297	-364.19	79.496	-50.963	-351.78	1054.4	-32.609	-336.02	84.274	34.78	-194.99	1604.2	63.365	-417.53	55.632	6.8185	-180.51	1057.6	-233.87
320	1.6	-58.354	1680.1	18.132	-60.993	1669.3	-80.916	-46.672	1413.1	-2.9121	21.156	1253.1	0.67023	-107.64	994.72	-171.15	-79.581	997.98	183.85	-161.94	1501.8	165.53	-205.94	1340	286.42	-213.61	1190.5	337.57	-201.83	1036.4	354.31	-197.68	914.8	287.28	-203.35	922.33	368.18	-184.77	832.57	337.54	-164.8	1467.3	-186.46	-160.38	1290.4	-271.78	-116.51	1132	-320.49	-38.858	1016.3	-320.17	52.199	932.09	-247.25	26.109	894.58	-305.97	106.79	862.84	-272.84	-44.564	645.84	232.76	-85.027	721.72	240.61	-8.0368	530.22	75.243	63.858	428.18	173.54	39.162	340.59	226.13	67.772	341.93	171.9	-197.72	761.13	-186.12	-208.85	592.61	-155.77	-237.34	509.4	-150.12	-220.85	501.56	6.4942	-191.01	376.94	-84.533	-241.72	292.96	-120.55	-212.32	297.34	-65.633	-208.11	36.112	-40.852	72.392	256.22	169.55	-241.87	216.07	-49.799	60.852	114.41	115.88	188.6	87.554	168.87	-34.636	750.56	228.08	-204.25	677.97	-170.98	-146.2	677	-155.32	217.24	107.83	209.3	-274.83	1126	242.79	-22.994	537.92	229.66	-206.8	1583.1	-80.067	-153.75	24.576	-81.662	-126.87	797.89	244.78	-27.063	57.689	139.74	-239.91	1491.1	-6.9525	-306.7	1381.1	108.48	15.745	99.492	194.51	-348.9	1040.2	53.793	-275.39	25.896	-118.22	-302.34	1178.3	9.8222	-363.76	79.832	-50.536	-345.63	1053.8	-31.104	-335.42	84.422	35.203	-188.29	1603.3	64.542	-417.16	56.151	7.3021	-171.7	1057	-233.61
321	1.605	-51.753	1679.2	19.196	-54.485	1668.6	-79.864	-39.951	1412.1	-2.1731	27.748	1252.1	1.1116	-102.34	993.91	-170.93	-72.581	996.64	184.37	-154.93	1501	166.38	-200.39	1339.4	287.03	-209.15	1189.7	337.92	-198.37	1035.5	354.34	-194.89	913.93	287.03	-200.77	921.35	367.97	-182.9	831.39	337.18	-158.14	1466.6	-185.53	-152.8	1289.9	-271.02	-108.02	1131.8	-319.89	-29.333	1017.1	-319.49	62.534	933.87	-246.51	36.883	896.05	-305.2	117.96	865.38	-272.14	-38.597	644.4	233.14	-78.903	720.36	241.11	-1.5408	528.57	75.314	73.797	429.34	173.92	51.825	341.21	226.84	80.306	343.22	172.54	-193.25	760.58	-185.54	-205.17	592.11	-155.3	-234.07	508.99	-149.54	-217.14	500.9	6.9855	-188.44	376.11	-84.12	-239.83	292.52	-120.11	-210.31	296.65	-65.237	-207.96	36.048	-40.838	87.48	257.64	170.48	-240.43	215.57	-49.441	79.984	115.34	117.27	208.73	92.437	169.65	-28.502	749.1	228.39	-200.16	677.47	-170.46	-142.09	676.18	-154.88	237.03	113.49	209.92	-270	1125.8	242.58	-15.751	536.83	229.91	-200.22	1582.3	-78.968	-153.62	24.502	-81.844	-120.63	796.6	245.31	-6.1535	56.047	141.58	-233.17	1490.3	-5.9812	-299.92	1380.5	109.38	35.681	99.319	196.03	-342.32	1039.6	55.24	-275.39	25.972	-117.97	-295.82	1177.6	11.137	-363.31	80.189	-50.092	-339.45	1053.2	-29.562	-334.79	84.582	35.642	-181.59	1602.3	65.759	-416.77	56.695	7.8046	-162.95	1056.4	-233.28
322	1.61	-45.137	1678.4	20.301	-47.951	1667.9	-78.77	-33.208	1411.1	-1.3966	34.365	1251.1	1.5789	-97.046	993.06	-170.74	-65.59	995.26	184.98	-147.91	1500.2	167.27	-194.83	1338.8	287.66	-204.67	1189	338.27	-194.85	1034.6	354.37	-191.99	913.06	286.79	-198.11	920.37	367.76	-180.93	830.21	336.83	-151.44	1465.9	-184.57	-145.22	1289.4	-270.23	-99.623	1131.7	-319.26	-19.936	1017.8	-318.8	72.75	935.61	-245.77	47.503	897.48	-304.42	128.98	867.88	-271.46	-32.676	642.84	233.57	-72.806	718.89	241.61	4.8566	526.84	75.402	83.584	430.47	174.26	64.292	341.88	227.51	92.595	344.52	173.12	-188.74	760	-184.96	-201.43	591.6	-154.83	-230.74	508.57	-148.95	-213.35	500.23	7.4735	-185.82	375.26	-83.704	-237.91	292.07	-119.66	-208.27	295.94	-64.837	-207.8	35.983	-40.82	102.24	259.13	171.32	-238.96	215.06	-49.077	98.645	116.48	118.57	228.29	97.456	170.23	-22.392	747.52	228.69	-196.02	676.94	-169.94	-137.93	675.34	-154.44	256.27	119.26	210.33	-265.08	1125.6	242.36	-8.5014	535.71	230.18	-193.63	1581.5	-77.846	-153.5	24.43	-82.025	-114.41	795.21	245.8	14.312	54.71	143.38	-226.42	1489.5	-4.982	-293.12	1379.8	110.3	55.218	99.398	197.47	-335.71	1038.9	56.724	-275.4	26.05	-117.7	-289.27	1176.8	12.469	-362.85	80.569	-49.635	-333.23	1052.6	-27.984	-334.15	84.756	36.092	-174.87	1601.4	67.015	-416.37	57.265	8.3225	-154.27	1055.8	-232.88
